<?xml version="1.0" encoding="UTF-8" standalone="no"?>
<!-- Created with Inkscape (http://www.inkscape.org/) -->
<svg
   xmlns:svg="http://www.w3.org/2000/svg"
   xmlns="http://www.w3.org/2000/svg"
   version="1.0"
   width="485.58401"
   height="485.57999"
   viewBox="0 0 486 486"
   id="svg2">
  <defs
     id="defs4">
    <linearGradient
       id="linearGradient1943">
      <stop
         id="stop1945"
         style="stop-color:#5a1d2e;stop-opacity:1"
         offset="0" />
      <stop
         id="stop1947"
         style="stop-color:#812a2e;stop-opacity:0"
         offset="1" />
    </linearGradient>
    <mask
       id="id0">
      <linearGradient
         x1="47.2827"
         y1="81.696503"
         x2="47.2827"
         y2="52.801201"
         id="id1"
         gradientUnits="userSpaceOnUse">
        <stop
           id="stop1898"
           style="stop-color:#ffffff;stop-opacity:1"
           offset="0" />
        <stop
           id="stop1900"
           style="stop-color:#ffffff;stop-opacity:0"
           offset="1" />
      </linearGradient>
      <rect
         width="89.767097"
         height="49.8354"
         x="2.3991201"
         y="42.3311"
         id="rect1902"
         style="fill:url(#id1)" />
    </mask>
    <style
       type="text/css"
       id="style1894" />
    <style
       type="text/css"
       id="style2055" />
    <clipPath
       id="clipPath3243">
      <path
         d="M 242.792,16.7459 C 367.613,16.7459 468.838,117.9709 468.838,242.7919 C 468.838,367.6129 367.613,468.8379 242.792,468.8379 C 117.971,468.8379 16.746,367.6129 16.746,242.7919 C 16.746,117.9709 117.971,16.7459 242.792,16.7459 L 242.792,16.7459 z"
         id="path3220" />
    </clipPath>
    <style
       type="text/css"
       id="style3217" />
    <clipPath
       id="clipPath3498">
      <path
         d="M 242.792,16.7459 C 367.613,16.7459 468.838,117.9709 468.838,242.7919 C 468.838,367.6129 367.613,468.8379 242.792,468.8379 C 117.971,468.8379 16.746,367.6129 16.746,242.7919 C 16.746,117.9709 117.971,16.7459 242.792,16.7459 L 242.792,16.7459 z"
         id="path3475" />
    </clipPath>
    <style
       type="text/css"
       id="style3472" />
    <style
       type="text/css"
       id="style3199" />
    <style
       type="text/css"
       id="style3275" />
    <style
       type="text/css"
       id="style3399" />
    <style
       type="text/css"
       id="style3513" />
    <style
       type="text/css"
       id="style3799" />
  </defs>
  <g
     id="layer1">
    <g
       transform="matrix(1.074073,0,0,1.074073,-17.77993,-17.99968)"
       id="g2832"
       style="fill:#ffffff">
      <circle
         cx="242.79201"
         cy="242.79201"
         r="242.79201"
         id="circle2834"
         style="fill:#ffffff" />
    </g>
    <g
       transform="translate(0.204407,-1.534623e-2)"
       id="_45498456"
       style="fill:#d45500">
      <circle
         cx="242.79201"
         cy="242.79201"
         r="242.79201"
         id="_45140576"
         style="fill:#d45500" />
    </g>
    <path
       d="M 242.99641,16.730554 C 367.81741,16.730554 469.04241,117.95555 469.04241,242.77655 C 469.04241,367.59755 367.81741,468.82255 242.99641,468.82255 C 118.17541,468.82255 16.950407,367.59755 16.950407,242.77655 C 16.950407,117.95555 118.17541,16.730554 242.99641,16.730554 L 242.99641,16.730554 z"
       id="path3481"
       style="fill:#ff9955" />
    <g
       transform="translate(0.204407,-1.534623e-2)"
       id="g3483"
       style="fill:#ff6600">
      <ellipse
         cx="242.79201"
         cy="72.445503"
         rx="112.95"
         ry="56.510601"
         id="_84285192"
         style="fill:#ffccaa" />
      <path
         d="M 17.8908,219.959 C 87.4423,193.5099 160.5838,192.031 236.3898,236.3969 C 313.0085,292.745 391.5808,270.7924 468.8178,241.12517 C 468.82189,241.68128 468.83825,242.23466 468.83825,242.79213 C 468.83825,367.61313 367.61325,468.83813 242.79225,468.83813 C 117.97125,468.83813 16.746245,367.61313 16.746245,242.79213 C 16.746245,235.08433 17.137428,227.46923 17.891175,219.95903 L 17.8908,219.959 z"
         id="_48108240"
         style="fill:#ff6600" />
    </g>
    <path
       d="M 242.99641,16.730554 C 367.81741,16.730554 469.04241,117.95555 469.04241,242.77655 C 469.04241,367.59755 367.81741,468.82255 242.99641,468.82255 C 118.17541,468.82255 16.950407,367.59755 16.950407,242.77655 C 16.950407,117.95555 118.17541,16.730554 242.99641,16.730554 L 242.99641,16.730554 z"
       id="path3488"
       style="fill:none" />
    <path
       d="M 464.10641,258.04265 C 464.43489,262.40427 464.6189,266.80542 464.6189,271.24205 C 464.6189,379.22205 365.865,466.79005 244.0909,466.79005 C 122.3169,466.79005 23.562897,379.22235 23.562897,271.24205 C 23.562897,266.80546 23.746903,262.40432 24.075387,258.04265 C 31.735487,359.86865 127.32039,440.39365 244.09039,440.39365 C 360.86039,440.39365 456.44539,359.86855 464.10539,258.04265 L 464.10641,258.04265 z"
       id="path3492"
       style="fill:#ff9955" />
    <g
       transform="matrix(1.135608,0,0,1.135608,95.51126,95.29071)"
       id="Layer_x0020_1">
      <path
         d="M 259.747,129.874 C 259.747,93.9823 247.0915,63.347 221.7806,38.0361 C 196.4003,12.7251 165.8344,0.0003 129.8733,0.0003 C 94.0509,0.0003 63.4842,12.7251 38.1039,38.0361 C 12.7244,63.3471 -0.0004,93.9823 -0.0004,129.874 C -0.0004,165.8351 12.7244,196.4703 38.1039,221.7813 C 63.4842,247.0923 94.0509,259.7477 129.8733,259.7477 C 165.8344,259.7477 196.4003,247.0922 221.7806,221.7813 C 247.0916,196.4703 259.747,165.8351 259.747,129.874 L 259.747,129.874 z M 169.597,128.5697 C 169.597,139.6582 165.74882,149.1165 157.9862,156.9438 C 150.22435,164.77114 140.7661,168.6848 129.6776,168.6848 C 118.5891,168.6848 109.1308,164.77113 101.3035,156.9438 C 93.47616,149.11646 89.5625,139.6582 89.5625,128.5697 C 89.5625,117.6114 93.47617,108.2186 101.3035,100.3913 C 109.13084,92.56396 118.5891,88.6503 129.6776,88.6503 C 140.7661,88.6503 150.2244,92.56397 157.9862,100.3913 C 165.74882,108.21864 169.597,117.6114 169.597,128.5697 L 169.597,128.5697 z M 92.2366,176.5121 L 54.405,216.497 C 53.2309,216.56171 48.86038,212.64805 41.2287,204.625 C 30.1402,190.8624 22.5733,175.2725 18.4639,157.792 L 66.7977,138.4841 C 67.8416,142.20208 69.0157,145.65967 70.45097,148.7906 C 73.90779,156.61794 77.95165,162.6186 82.64807,166.9892 L 92.23656,176.5122 L 92.2366,176.5121 z M 109.9791,189.166 L 76.582,233.6516 C 72.21225,231.23791 66.79783,227.51993 60.3403,222.5631 L 98.3684,181.1429 C 101.7605,185.18754 105.67417,187.86162 109.9792,189.16592 L 109.9791,189.166 z M 199.4064,37.185 L 161.574,78.6699 C 158.1819,74.62603 154.26823,71.95118 149.9632,70.64688 L 183.1647,26.16128 C 187.53445,28.57497 192.94887,32.22747 199.4064,37.18508 L 199.4064,37.185 z M 241.2826,102.0217 L 193.1445,121.3289 C 191.9704,117.61092 190.73081,114.1541 189.29555,110.9577 C 185.83873,103.19585 181.85958,97.1297 177.29415,92.8246 L 167.50998,83.30083 L 205.53728,43.31673 C 206.71138,43.185761 211.0819,47.16491 218.71358,55.18793 C 229.67188,68.95123 237.23798,84.54043 241.28268,102.02173 L 241.2826,102.0217 z"
         id="path3803"
         style="fill:#ffffff" />
    </g>
  </g>
</svg>
