<?xml version="1.0" encoding="UTF-8" standalone="no"?>
<!-- Created with Inkscape (http://www.inkscape.org/) -->
<svg
   xmlns:svg="http://www.w3.org/2000/svg"
   xmlns="http://www.w3.org/2000/svg"
   version="1.0"
   width="485.58401"
   height="485.57999"
   viewBox="0 0 486 486"
   id="svg2">
  <defs
     id="defs4">
    <linearGradient
       id="linearGradient1943">
      <stop
         id="stop1945"
         style="stop-color:#5a1d2e;stop-opacity:1"
         offset="0" />
      <stop
         id="stop1947"
         style="stop-color:#812a2e;stop-opacity:0"
         offset="1" />
    </linearGradient>
    <mask
       id="id0">
      <linearGradient
         x1="47.2827"
         y1="81.696503"
         x2="47.2827"
         y2="52.801201"
         id="id1"
         gradientUnits="userSpaceOnUse">
        <stop
           id="stop1898"
           style="stop-color:#ffffff;stop-opacity:1"
           offset="0" />
        <stop
           id="stop1900"
           style="stop-color:#ffffff;stop-opacity:0"
           offset="1" />
      </linearGradient>
      <rect
         width="89.767097"
         height="49.8354"
         x="2.3991201"
         y="42.3311"
         id="rect1902"
         style="fill:url(#id1)" />
    </mask>
    <style
       type="text/css"
       id="style1894" />
    <style
       type="text/css"
       id="style2055" />
    <clipPath
       id="clipPath3243">
      <path
         d="M 242.792,16.7459 C 367.613,16.7459 468.838,117.9709 468.838,242.7919 C 468.838,367.6129 367.613,468.8379 242.792,468.8379 C 117.971,468.8379 16.746,367.6129 16.746,242.7919 C 16.746,117.9709 117.971,16.7459 242.792,16.7459 L 242.792,16.7459 z"
         id="path3220" />
    </clipPath>
    <style
       type="text/css"
       id="style3217" />
    <clipPath
       id="clipPath3498">
      <path
         d="M 242.792,16.7459 C 367.613,16.7459 468.838,117.9709 468.838,242.7919 C 468.838,367.6129 367.613,468.8379 242.792,468.8379 C 117.971,468.8379 16.746,367.6129 16.746,242.7919 C 16.746,117.9709 117.971,16.7459 242.792,16.7459 L 242.792,16.7459 z"
         id="path3475" />
    </clipPath>
    <style
       type="text/css"
       id="style3472" />
    <style
       type="text/css"
       id="style3199" />
  </defs>
  <g
     transform="matrix(1.074073,0,0,1.074073,-17.77993,-17.99968)"
     id="g2832"
     style="fill:#ffffff">
    <circle
       cx="242.79201"
       cy="242.79201"
       r="242.79201"
       id="circle2834"
       style="fill:#ffffff" />
  </g>
  <g
     id="layer1">
    <g
       transform="translate(0.204407,-1.534623e-2)"
       id="Layer_x0020_1">
      <g
         id="_45498456"
         style="fill:#d40000">
        <circle
           cx="242.79201"
           cy="242.79201"
           r="242.79201"
           id="_45140576"
           style="fill:#d40000" />
      </g>
      <path
         d="M 242.792,16.7459 C 367.613,16.7459 468.838,117.9709 468.838,242.7919 C 468.838,367.6129 367.613,468.8379 242.792,468.8379 C 117.971,468.8379 16.746,367.6129 16.746,242.7919 C 16.746,117.9709 117.971,16.7459 242.792,16.7459 L 242.792,16.7459 z"
         id="path3481"
         style="fill:#ff8080" />
      <g
         id="g3483">
        <g
           id="_45286000">
          <ellipse
             cx="242.79201"
             cy="72.445503"
             rx="112.95"
             ry="56.510601"
             id="_84285192"
             style="fill:#ffaaaa" />
          <path
             d="M 17.8908,219.959 C 87.4423,193.5099 160.5838,192.031 236.3898,236.3969 C 313.0085,292.745 391.5808,270.7924 468.8178,241.12517 C 468.82189,241.68128 468.83825,242.23466 468.83825,242.79213 C 468.83825,367.61313 367.61325,468.83813 242.79225,468.83813 C 117.97125,468.83813 16.746245,367.61313 16.746245,242.79213 C 16.746245,235.08433 17.137428,227.46923 17.891175,219.95903 L 17.8908,219.959 z"
             id="_48108240"
             style="fill:#ff0000" />
        </g>
      </g>
      <path
         d="M 242.792,16.7459 C 367.613,16.7459 468.838,117.9709 468.838,242.7919 C 468.838,367.6129 367.613,468.8379 242.792,468.8379 C 117.971,468.8379 16.746,367.6129 16.746,242.7919 C 16.746,117.9709 117.971,16.7459 242.792,16.7459 L 242.792,16.7459 z"
         id="path3488"
         style="fill:none" />
      <path
         d="M 463.902,258.058 C 464.23048,262.41962 464.41449,266.82077 464.41449,271.2574 C 464.41449,379.2374 365.66059,466.8054 243.88649,466.8054 C 122.11249,466.8054 23.35849,379.2377 23.35849,271.2574 C 23.35849,266.82081 23.542496,262.41967 23.87098,258.058 C 31.53108,359.884 127.11598,440.409 243.88598,440.409 C 360.65598,440.409 456.24098,359.8839 463.90098,258.058 L 463.902,258.058 z"
         id="path3492"
         style="fill:#ff8080" />
      <g
         transform="matrix(12.89215,0,0,12.89215,127.7288,149.6234)"
         id="g3209">
        <path
           d="M 18.8529,4.55703 C 18.8529,7.17729 17.20955,9.85193 13.92688,12.5769 C 11.6422,14.47185 8.80813,16.2243 5.42915,17.83412 C 5.550688,17.18853 5.613588,16.5722 5.613588,15.9811 C 5.613588,14.45929 5.127322,13.07583 4.163088,11.83062 C 3.261751,10.82871 2.356148,9.8351 1.450668,8.84575 C 0.482168,7.63429 4.8e-05,6.30521 4.8e-05,4.86738 C 4.8e-05,3.45029 0.478019,2.28479 1.429588,1.3709 C 2.385531,0.457006 3.571878,-1.110223e-15 4.997378,-1.110223e-15 C 5.974172,-1.110223e-15 6.875508,0.255748 7.713948,0.76298 C 8.619548,1.320556 9.198088,2.04586 9.445308,2.93879 C 10.443069,0.98105 11.918798,-1.3322676e-15 13.863978,-1.3322676e-15 C 15.176238,-1.3322676e-15 16.320648,0.427628 17.305968,1.27862 C 18.337248,2.171663 18.852898,3.26585 18.852898,4.55703 L 18.8529,4.55703 z"
           id="path3203"
           style="fill:#ffffff" />
      </g>
    </g>
  </g>
</svg>
