<?xml version="1.0" encoding="UTF-8" standalone="no"?>
<!-- Created with Inkscape (http://www.inkscape.org/) -->
<svg
   xmlns:svg="http://www.w3.org/2000/svg"
   xmlns="http://www.w3.org/2000/svg"
   version="1.0"
   width="485.58401"
   height="485.57999"
   viewBox="0 0 486 486"
   id="svg2">
  <defs
     id="defs4">
    <linearGradient
       id="linearGradient1943">
      <stop
         id="stop1945"
         style="stop-color:#5a1d2e;stop-opacity:1"
         offset="0" />
      <stop
         id="stop1947"
         style="stop-color:#812a2e;stop-opacity:0"
         offset="1" />
    </linearGradient>
    <mask
       id="id0">
      <linearGradient
         x1="47.2827"
         y1="81.696503"
         x2="47.2827"
         y2="52.801201"
         id="id1"
         gradientUnits="userSpaceOnUse">
        <stop
           id="stop1898"
           style="stop-color:#ffffff;stop-opacity:1"
           offset="0" />
        <stop
           id="stop1900"
           style="stop-color:#ffffff;stop-opacity:0"
           offset="1" />
      </linearGradient>
      <rect
         width="89.767097"
         height="49.8354"
         x="2.3991201"
         y="42.3311"
         id="rect1902"
         style="fill:url(#id1)" />
    </mask>
    <style
       type="text/css"
       id="style1894" />
    <style
       type="text/css"
       id="style2055" />
    <clipPath
       id="clipPath3243">
      <path
         d="M 242.792,16.7459 C 367.613,16.7459 468.838,117.9709 468.838,242.7919 C 468.838,367.6129 367.613,468.8379 242.792,468.8379 C 117.971,468.8379 16.746,367.6129 16.746,242.7919 C 16.746,117.9709 117.971,16.7459 242.792,16.7459 L 242.792,16.7459 z"
         id="path3220" />
    </clipPath>
    <style
       type="text/css"
       id="style3217" />
    <clipPath
       id="clipPath3498">
      <path
         d="M 242.792,16.7459 C 367.613,16.7459 468.838,117.9709 468.838,242.7919 C 468.838,367.6129 367.613,468.8379 242.792,468.8379 C 117.971,468.8379 16.746,367.6129 16.746,242.7919 C 16.746,117.9709 117.971,16.7459 242.792,16.7459 L 242.792,16.7459 z"
         id="path3475" />
    </clipPath>
    <style
       type="text/css"
       id="style3472" />
    <style
       type="text/css"
       id="style3199" />
    <style
       type="text/css"
       id="style3275" />
    <style
       type="text/css"
       id="style3399" />
    <style
       type="text/css"
       id="style3513" />
    <style
       type="text/css"
       id="style3799" />
    <style
       type="text/css"
       id="style3869" />
  </defs>
  <g
     id="layer1">
    <g
       transform="matrix(1.074073,0,0,1.074073,-17.77993,-17.99968)"
       id="g2832"
       style="fill:#ffffff">
      <circle
         cx="242.79201"
         cy="242.79201"
         r="242.79201"
         id="circle2834"
         style="fill:#ffffff" />
    </g>
    <g
       transform="translate(0.204407,-1.534623e-2)"
       id="_45498456"
       style="fill:#d40055">
      <circle
         cx="242.79201"
         cy="242.79201"
         r="242.79201"
         id="_45140576"
         style="fill:#d40055" />
    </g>
    <path
       d="M 242.99641,16.730554 C 367.81741,16.730554 469.04241,117.95555 469.04241,242.77655 C 469.04241,367.59755 367.81741,468.82255 242.99641,468.82255 C 118.17541,468.82255 16.950407,367.59755 16.950407,242.77655 C 16.950407,117.95555 118.17541,16.730554 242.99641,16.730554 L 242.99641,16.730554 z"
       id="path3481"
       style="fill:#ff80b2" />
    <ellipse
       cx="242.79201"
       cy="72.445503"
       rx="112.95"
       ry="56.510601"
       transform="translate(0.204407,-1.534623e-2)"
       id="_84285192"
       style="fill:#ffd5e5" />
    <path
       d="M 18.095207,219.94365 C 87.646707,193.49455 160.78821,192.01565 236.59421,236.38155 C 313.21291,292.72965 391.78521,270.77705 469.02221,241.10982 C 469.0263,241.66593 469.04266,242.21931 469.04266,242.77678 C 469.04266,367.59778 367.81766,468.82278 242.99666,468.82278 C 118.17566,468.82278 16.950652,367.59778 16.950652,242.77678 C 16.950652,235.06898 17.341835,227.45388 18.095582,219.94368 L 18.095207,219.94365 z"
       id="_48108240"
       style="fill:#ff0066" />
    <path
       d="M 242.99641,16.730554 C 367.81741,16.730554 469.04241,117.95555 469.04241,242.77655 C 469.04241,367.59755 367.81741,468.82255 242.99641,468.82255 C 118.17541,468.82255 16.950407,367.59755 16.950407,242.77655 C 16.950407,117.95555 118.17541,16.730554 242.99641,16.730554 L 242.99641,16.730554 z"
       id="path3488"
       style="fill:none" />
    <path
       d="M 464.10641,258.04265 C 464.43489,262.40427 464.6189,266.80542 464.6189,271.24205 C 464.6189,379.22205 365.865,466.79005 244.0909,466.79005 C 122.3169,466.79005 23.562897,379.22235 23.562897,271.24205 C 23.562897,266.80546 23.746903,262.40432 24.075387,258.04265 C 31.735487,359.86865 127.32039,440.39365 244.09039,440.39365 C 360.86039,440.39365 456.44539,359.86855 464.10539,258.04265 L 464.10641,258.04265 z"
       id="path3492"
       style="fill:#ff80b2" />
    <g
       transform="matrix(24.69374,0,0,24.69374,130.881,97.48672)"
       id="Layer_x0020_1">
      <path
         d="M 6.53835,0 C 7.335228,1.19893 7.73085,2.35345 7.73085,3.45941 C 7.73085,4.074371 7.519436,4.96353 7.096722,6.13147 C 6.674008,7.29482 6.462479,8.18409 6.462479,8.79894 C 6.4625938,9.82537 6.86901,10.81621 7.682069,11.76735 C 7.5899052,11.223205 7.541126,10.719 7.541126,10.25003 C 7.541126,9.551055 7.795925,8.53794 8.310802,7.21081 C 8.825679,5.88367 9.080478,4.87056 9.080478,4.1717 C 9.0805928,3.317894 8.852881,2.50391 8.397571,1.72976 C 7.942261,0.955493 7.324321,0.38047 6.538341,2.220446e-16 L 6.53835,0 z"
         id="path3873"
         style="fill:#ffffff" />
      <path
         d="M 3.30711,0 C 4.103873,1.19893 4.49961,2.35345 4.49961,3.45941 C 4.49961,4.074371 4.288196,4.96353 3.865367,6.13147 C 3.442653,7.29482 3.231239,8.18409 3.231239,8.79894 C 3.231239,9.82537 3.63777,10.81621 4.450829,11.76735 C 4.3586652,11.223205 4.309886,10.719 4.309886,10.25003 C 4.309886,9.551055 4.564685,8.53794 5.079562,7.21081 C 5.594439,5.88367 5.849238,4.87056 5.849238,4.1717 C 5.849238,3.317894 5.621641,2.50391 5.166331,1.72976 C 4.711021,0.955493 4.093081,0.38047 3.307101,2.220446e-16 L 3.30711,0 z"
         id="path3875"
         style="fill:#ffffff" />
      <path
         d="M 0.0758658,0 C 0.8727438,1.19893 1.2683658,2.35345 1.2683658,3.45941 C 1.2683658,4.074371 1.0569518,4.96353 0.6341228,6.13147 C 0.2114088,7.29482 -5.2e-06,8.18409 -5.2e-06,8.79894 C -5.2e-06,9.82537 0.4065258,10.81621 1.2195848,11.76735 C 1.1273063,11.223205 1.0785268,10.719 1.0785268,10.25003 C 1.0785268,9.551055 1.3333258,8.53794 1.8483178,7.21081 C 2.3631948,5.88367 2.6179938,4.87056 2.6179938,4.1717 C 2.6179938,3.317894 2.3902818,2.50391 1.9349718,1.72976 C 1.4796618,0.955493 0.8618318,0.38047 0.0758618,2.220446e-16 L 0.0758658,0 z"
         id="path3877"
         style="fill:#ffffff" />
    </g>
  </g>
</svg>
