<?xml version="1.0" encoding="UTF-8" standalone="no"?>
<!-- Created with Inkscape (http://www.inkscape.org/) -->
<svg
   xmlns:svg="http://www.w3.org/2000/svg"
   xmlns="http://www.w3.org/2000/svg"
   version="1.0"
   width="485.58401"
   height="485.57999"
   viewBox="0 0 486 486"
   id="svg2">
  <defs
     id="defs4">
    <linearGradient
       id="linearGradient1943">
      <stop
         id="stop1945"
         style="stop-color:#5a1d2e;stop-opacity:1"
         offset="0" />
      <stop
         id="stop1947"
         style="stop-color:#812a2e;stop-opacity:0"
         offset="1" />
    </linearGradient>
    <mask
       id="id0">
      <linearGradient
         x1="47.2827"
         y1="81.696503"
         x2="47.2827"
         y2="52.801201"
         id="id1"
         gradientUnits="userSpaceOnUse">
        <stop
           id="stop1898"
           style="stop-color:#ffffff;stop-opacity:1"
           offset="0" />
        <stop
           id="stop1900"
           style="stop-color:#ffffff;stop-opacity:0"
           offset="1" />
      </linearGradient>
      <rect
         width="89.767097"
         height="49.8354"
         x="2.3991201"
         y="42.3311"
         id="rect1902"
         style="fill:url(#id1)" />
    </mask>
    <style
       type="text/css"
       id="style1894" />
    <style
       type="text/css"
       id="style2055" />
    <clipPath
       id="clipPath3243">
      <path
         d="M 242.792,16.7459 C 367.613,16.7459 468.838,117.9709 468.838,242.7919 C 468.838,367.6129 367.613,468.8379 242.792,468.8379 C 117.971,468.8379 16.746,367.6129 16.746,242.7919 C 16.746,117.9709 117.971,16.7459 242.792,16.7459 L 242.792,16.7459 z"
         id="path3220" />
    </clipPath>
    <style
       type="text/css"
       id="style3217" />
    <clipPath
       id="clipPath3498">
      <path
         d="M 242.792,16.7459 C 367.613,16.7459 468.838,117.9709 468.838,242.7919 C 468.838,367.6129 367.613,468.8379 242.792,468.8379 C 117.971,468.8379 16.746,367.6129 16.746,242.7919 C 16.746,117.9709 117.971,16.7459 242.792,16.7459 L 242.792,16.7459 z"
         id="path3475" />
    </clipPath>
    <style
       type="text/css"
       id="style3472" />
    <style
       type="text/css"
       id="style3199" />
    <style
       type="text/css"
       id="style3275" />
    <style
       type="text/css"
       id="style3399" />
  </defs>
  <g
     transform="translate(0.204407,-1.534623e-2)"
     id="_45498456"
     style="fill:#aa8800">
    <circle
       cx="242.79201"
       cy="242.79201"
       r="242.79201"
       id="_45140576"
       style="fill:#aa8800" />
  </g>
  <path
     d="M 242.99641,16.730554 C 367.81741,16.730554 469.04241,117.95555 469.04241,242.77655 C 469.04241,367.59755 367.81741,468.82255 242.99641,468.82255 C 118.17541,468.82255 16.950407,367.59755 16.950407,242.77655 C 16.950407,117.95555 118.17541,16.730554 242.99641,16.730554 L 242.99641,16.730554 z"
     id="path3481"
     style="fill:#ffcc00" />
  <g
     transform="translate(0.204407,-1.534623e-2)"
     id="g3483">
    <ellipse
       cx="242.79201"
       cy="72.445503"
       rx="112.95"
       ry="56.510601"
       id="_84285192"
       style="fill:#ffeeaa" />
    <path
       d="M 17.8908,219.959 C 87.4423,193.5099 160.5838,192.031 236.3898,236.3969 C 313.0085,292.745 391.5808,270.7924 468.8178,241.12517 C 468.82189,241.68128 468.83825,242.23466 468.83825,242.79213 C 468.83825,367.61313 367.61325,468.83813 242.79225,468.83813 C 117.97125,468.83813 16.746245,367.61313 16.746245,242.79213 C 16.746245,235.08433 17.137428,227.46923 17.891175,219.95903 L 17.8908,219.959 z"
       id="_48108240"
       style="fill:#d4aa00" />
  </g>
  <path
     d="M 242.99641,16.730554 C 367.81741,16.730554 469.04241,117.95555 469.04241,242.77655 C 469.04241,367.59755 367.81741,468.82255 242.99641,468.82255 C 118.17541,468.82255 16.950407,367.59755 16.950407,242.77655 C 16.950407,117.95555 118.17541,16.730554 242.99641,16.730554 L 242.99641,16.730554 z"
     id="path3488"
     style="fill:none" />
  <path
     d="M 464.10641,258.04265 C 464.43489,262.40427 464.6189,266.80542 464.6189,271.24205 C 464.6189,379.22205 365.865,466.79005 244.0909,466.79005 C 122.3169,466.79005 23.562897,379.22235 23.562897,271.24205 C 23.562897,266.80546 23.746903,262.40432 24.075387,258.04265 C 31.735487,359.86865 127.32039,440.39365 244.09039,440.39365 C 360.86039,440.39365 456.44539,359.86855 464.10539,258.04265 L 464.10641,258.04265 z"
     id="path3492"
     style="fill:#ffcc00" />
  <polygon
     points="294.877,363.889 185.429,363.889 185.429,207.29 123.131,207.29 240.152,90.2038 357.174,207.29 294.877,207.29 294.877,363.889 "
     transform="translate(2.843914,15.73026)"
     id="polygon3490"
     style="fill:#ffffff" />
</svg>
