<?xml version="1.0" encoding="UTF-8" standalone="no"?>
<!-- Created with Inkscape (http://www.inkscape.org/) -->
<svg
   xmlns:svg="http://www.w3.org/2000/svg"
   xmlns="http://www.w3.org/2000/svg"
   xmlns:xlink="http://www.w3.org/1999/xlink"
   version="1.0"
   width="485.58401"
   height="485.57999"
   viewBox="0 0 486 486"
   id="svg2">
  <defs
     id="defs4">
    <linearGradient
       x1="41.205872"
       y1="92.158257"
       x2="41.035194"
       y2="61.0401"
       id="linearGradient1961"
       xlink:href="#linearGradient1943"
       gradientUnits="userSpaceOnUse"
       gradientTransform="translate(455.7497,1206.462)" />
    <linearGradient
       id="linearGradient1943">
      <stop
         id="stop1945"
         style="stop-color:#5a1d2e;stop-opacity:1"
         offset="0" />
      <stop
         id="stop1947"
         style="stop-color:#812a2e;stop-opacity:0"
         offset="1" />
    </linearGradient>
    <mask
       id="id0">
      <linearGradient
         x1="47.2827"
         y1="81.696503"
         x2="47.2827"
         y2="52.801201"
         id="id1"
         gradientUnits="userSpaceOnUse">
        <stop
           id="stop1898"
           style="stop-color:#ffffff;stop-opacity:1"
           offset="0" />
        <stop
           id="stop1900"
           style="stop-color:#ffffff;stop-opacity:0"
           offset="1" />
      </linearGradient>
      <rect
         width="89.767097"
         height="49.8354"
         x="2.3991201"
         y="42.3311"
         id="rect1902"
         style="fill:url(#id1)" />
    </mask>
    <style
       type="text/css"
       id="style1894" />
    <style
       type="text/css"
       id="style2055" />
    <clipPath
       id="clipPath3243">
      <path
         d="M 242.792,16.7459 C 367.613,16.7459 468.838,117.9709 468.838,242.7919 C 468.838,367.6129 367.613,468.8379 242.792,468.8379 C 117.971,468.8379 16.746,367.6129 16.746,242.7919 C 16.746,117.9709 117.971,16.7459 242.792,16.7459 L 242.792,16.7459 z"
         id="path3220" />
    </clipPath>
    <style
       type="text/css"
       id="style3217" />
    <clipPath
       id="clipPath3498">
      <path
         d="M 242.792,16.7459 C 367.613,16.7459 468.838,117.9709 468.838,242.7919 C 468.838,367.6129 367.613,468.8379 242.792,468.8379 C 117.971,468.8379 16.746,367.6129 16.746,242.7919 C 16.746,117.9709 117.971,16.7459 242.792,16.7459 L 242.792,16.7459 z"
         id="path3475" />
    </clipPath>
    <style
       type="text/css"
       id="style3472" />
    <linearGradient
       x1="41.205872"
       y1="92.158257"
       x2="41.035194"
       y2="61.0401"
       id="linearGradient3576"
       xlink:href="#linearGradient1943"
       gradientUnits="userSpaceOnUse"
       gradientTransform="translate(358.4096,1287.109)" />
  </defs>
  <g
     transform="translate(0.204407,-1.534623e-2)"
     id="_45498456">
    <circle
       cx="242.79201"
       cy="242.79201"
       r="242.79201"
       id="_45140576"
       style="fill:#007cc3" />
  </g>
  <path
     d="M 242.99641,16.730554 C 367.81741,16.730554 469.04241,117.95555 469.04241,242.77655 C 469.04241,367.59755 367.81741,468.82255 242.99641,468.82255 C 118.17541,468.82255 16.950407,367.59755 16.950407,242.77655 C 16.950407,117.95555 118.17541,16.730554 242.99641,16.730554 L 242.99641,16.730554 z"
     id="path3481"
     style="fill:#75c5f0" />
  <g
     transform="translate(0.204407,-1.534623e-2)"
     id="g3483">
    <g
       id="_45286000">
      <ellipse
         cx="242.79201"
         cy="72.445503"
         rx="112.95"
         ry="56.510601"
         id="_84285192"
         style="fill:#a9d9f6" />
      <path
         d="M 17.8908,219.959 C 87.4423,193.5099 160.5838,192.031 236.3898,236.3969 C 313.0085,292.745 391.5808,270.7924 468.8178,241.12517 C 468.82189,241.68128 468.83825,242.23466 468.83825,242.79213 C 468.83825,367.61313 367.61325,468.83813 242.79225,468.83813 C 117.97125,468.83813 16.746245,367.61313 16.746245,242.79213 C 16.746245,235.08433 17.137428,227.46923 17.891175,219.95903 L 17.8908,219.959 z"
         id="_48108240"
         style="fill:#3fa7df" />
    </g>
  </g>
  <path
     d="M 242.99641,16.730554 C 367.81741,16.730554 469.04241,117.95555 469.04241,242.77655 C 469.04241,367.59755 367.81741,468.82255 242.99641,468.82255 C 118.17541,468.82255 16.950407,367.59755 16.950407,242.77655 C 16.950407,117.95555 118.17541,16.730554 242.99641,16.730554 L 242.99641,16.730554 z"
     id="path3488"
     style="fill:none" />
  <path
     d="M 464.10641,258.04265 C 464.43489,262.40427 464.6189,266.80542 464.6189,271.24205 C 464.6189,379.22205 365.865,466.79005 244.0909,466.79005 C 122.3169,466.79005 23.562897,379.22235 23.562897,271.24205 C 23.562897,266.80546 23.746903,262.40432 24.075387,258.04265 C 31.735487,359.86865 127.32039,440.39365 244.09039,440.39365 C 360.86039,440.39365 456.44539,359.86855 464.10539,258.04265 L 464.10641,258.04265 z"
     id="path3492"
     style="fill:#75c5f0" />
  <path
     d="M 216.35477,122.62695 C 192.03072,122.62662 167.72181,131.88491 149.16727,150.43945 C 112.05819,187.54835 112.05819,247.73925 149.16727,284.8457 C 182.46602,318.14443 234.33419,321.55854 271.44852,295.0957 L 352.69852,376.3457 C 356.99939,380.64659 365.54949,379.15363 371.69852,373.00195 C 377.84492,366.85556 379.37439,358.30283 375.07352,354.00195 L 293.82352,272.75195 C 320.2864,235.63761 316.87227,183.73557 283.57352,150.43945 C 265.02038,131.88623 240.67882,122.62728 216.35477,122.62695 z M 215.63602,148.9707 C 253.65999,148.97069 284.51102,179.82173 284.51102,217.8457 C 284.51103,255.86968 253.65999,286.7207 215.63602,286.7207 C 177.61204,286.7207 146.76102,255.86967 146.76102,217.8457 C 146.76102,179.82173 177.61205,148.9707 215.63602,148.9707 z"
     id="path4129"
     style="fill:#ffffff;fill-opacity:1" />
</svg>
