<?xml version="1.0" encoding="UTF-8" standalone="no"?>
<!-- Created with Inkscape (http://www.inkscape.org/) -->
<svg
   xmlns:dc="http://purl.org/dc/elements/1.1/"
   xmlns:cc="http://web.resource.org/cc/"
   xmlns:rdf="http://www.w3.org/1999/02/22-rdf-syntax-ns#"
   xmlns:svg="http://www.w3.org/2000/svg"
   xmlns="http://www.w3.org/2000/svg"
   xmlns:sodipodi="http://sodipodi.sourceforge.net/DTD/sodipodi-0.dtd"
   xmlns:inkscape="http://www.inkscape.org/namespaces/inkscape"
   version="1.0"
   width="18"
   height="18"
   viewBox="0 0 18 18"
   id="Layer_1"
   xml:space="preserve"
   sodipodi:version="0.32"
   inkscape:version="0.45.1"
   sodipodi:docname="icn_author.svg"
   inkscape:output_extension="org.inkscape.output.svg.inkscape"
   sodipodi:docbase="C:\Symbian\emtube\emTube\gfx"><metadata
   id="metadata7"><rdf:RDF><cc:Work
       rdf:about=""><dc:format>image/svg+xml</dc:format><dc:type
         rdf:resource="http://purl.org/dc/dcmitype/StillImage" /></cc:Work></rdf:RDF></metadata><sodipodi:namedview
   inkscape:window-height="573"
   inkscape:window-width="836"
   inkscape:pageshadow="2"
   inkscape:pageopacity="0.0"
   guidetolerance="10.0"
   gridtolerance="10.0"
   objecttolerance="10.0"
   borderopacity="1.0"
   bordercolor="#666666"
   pagecolor="#ffffff"
   id="base"
   inkscape:zoom="20.944444"
   inkscape:cx="9"
   inkscape:cy="9"
   inkscape:window-x="176"
   inkscape:window-y="192"
   inkscape:current-layer="Layer_1" /><defs
   id="defs59">
	
	
	
</defs>
<rect
   width="18"
   height="18"
   x="0"
   y="0"
   style="fill:none"
   id="rect56" />
<path
   d="M 12.987984,5.9010547 C 12.987984,5.9010547 13.509637,5.7974932 13.663294,6.2986096 C 13.816952,6.7997266 13.684388,7.8191379 13.684388,7.8191379 C 13.684388,7.8191379 13.107636,7.6429528 13.081608,8.1150963 C 13.018084,9.2674455 12.038191,10.813995 11.293061,11.736781 C 10.746339,12.413853 11.221831,12.551035 11.221831,12.551035 C 11.221831,12.551035 12.410225,13.65891 13.829143,14.054316 C 15.079204,14.402669 15.649236,14.842677 16.205999,15.499327 C 16.640343,16.011595 16.5096,16.510395 16.5096,16.510395 L 1.5456947,16.528063 C 1.5456947,16.528063 1.2979535,16.301526 1.7105505,15.465948 C 1.936775,15.007805 2.8969673,14.233033 4.246939,13.971923 C 5.670367,13.696602 6.7833296,12.521087 6.7833296,12.521087 C 6.7833296,12.521087 7.3515542,12.415138 6.5892922,11.496264 C 5.9402777,10.713908 4.756139,9.081239 5.0050428,8.0095396 C 5.0613557,7.7670737 4.3612307,7.7621594 4.3612307,7.7621594 C 4.3612307,7.7621594 4.2587331,6.7884688 4.4119049,6.2831349 C 4.5650766,5.777801 5.0965835,5.8272065 5.0965835,5.8272065 C 5.0965835,5.8272065 4.8935014,3.7397303 5.9248277,2.6967357 C 6.8519501,1.7591223 7.5221343,1.4645701 9.0095206,1.4720762 C 10.496907,1.4795824 11.125087,1.6843028 12.119702,2.7699519 C 13.114317,3.8556009 12.987984,5.9010547 12.987984,5.9010547 z "
   style="fill:#666666;fill-opacity:0;fill-rule:nonzero;stroke:#ffffff;stroke-width:0.94387412;stroke-linejoin:round;stroke-miterlimit:4;stroke-dasharray:none;stroke-opacity:1"
   id="path5228" /></svg>