<?xml version="1.0" encoding="UTF-8"?>
<!DOCTYPE svg PUBLIC "-//W3C//DTD SVG 1.1//EN" "http://www.w3.org/Graphics/SVG/1.1/DTD/svg11.dtd">
<!-- Creator: CorelDRAW -->
<svg xmlns="http://www.w3.org/2000/svg" xml:space="preserve" width="266px" height="273px" style="shape-rendering:geometricPrecision; text-rendering:geometricPrecision; image-rendering:optimizeQuality; fill-rule:evenodd; clip-rule:evenodd"
viewBox="0 0 39.2028 40.292"
 xmlns:xlink="http://www.w3.org/1999/xlink">
 <defs>
  <style type="text/css">
   <![CDATA[
    .fil0 {fill:#DEDEDD;opacity:0.5}
   ]]>
  </style>
 </defs>
 <g id="Layer_x0020_1">
  <metadata id="CorelCorpID_0Corel-Layer"/>
  <path class="fil0" d="M10.2493 6.82915c1.24425,1.24372 1.24425,3.2643 0.00191771,4.50785 -1.24599,1.24512 -3.26621,1.24512 -4.51011,0.00122036 -1.24529,-1.24599 -1.24442,-3.26377 0.00122036,-4.50976 1.2432,-1.2432 3.26168,-1.24529 4.50697,0.00069735z"/>
  <path class="fil0" d="M33.462 30.041c1.24494,1.24634 1.24338,3.26482 0,4.50767 -1.2446,1.24564 -3.26273,1.24686 -4.50889,0.0013947 -1.24338,-1.2439 -1.2446,-3.26273 0.000871688,-4.50907 1.24425,-1.24355 3.26395,-1.24303 4.50802,0z"/>
  <path class="fil0" d="M5.74093 30.0424c1.2432,-1.24285 3.26308,-1.24494 4.50837,0 1.24477,1.24494 1.24338,3.26377 -0.000523013,4.50819 -1.24547,1.24494 -3.26325,1.24372 -4.50767,0 -1.24477,-1.24512 -1.24529,-3.26238 -0.000174338,-4.50819z"/>
  <path class="fil0" d="M27.4888 5.36593c2.05526,-2.05457 5.38459,-2.05317 7.43672,0 2.05335,2.0537 2.05509,5.38128 -0.000174338,7.43602 -2.05091,2.05248 -5.38302,2.05387 -7.43567,0 -2.05387,-2.05352 -2.05248,-5.38424 -0.000871688,-7.43602z"/>
  <path class="fil0" d="M16.413 37.1053c-0.000523013,-1.76203 1.42852,-3.1902 3.18759,-3.18846 1.76046,-0.00174338 3.18916,1.42643 3.18724,3.18672 0.00191771,1.75889 -1.42695,3.18776 -3.18672,3.18846 -1.76029,-0.00069735 -3.18863,-1.42887 -3.18811,-3.18672z"/>
  <path class="fil0" d="M15.3262 4.27598c0,-2.36088 1.91423,-4.27406 4.27528,-4.27598 2.36018,0.00104603 4.27563,1.91667 4.2751,4.27476 0.000871688,2.36245 -1.91475,4.27842 -4.27545,4.27458 -2.3607,0.00383543 -4.27615,-1.91213 -4.27493,-4.27336z"/>
  <path class="fil0" d="M36.0155 23.8771c-1.76133,0.00191771 -3.18846,-1.42765 -3.18724,-3.18689 -0.00122036,-1.76081 1.42591,-3.18776 3.18619,-3.18706 1.75941,-0.000523013 3.18706,1.42782 3.18828,3.18637 -0.00122036,1.75994 -1.42852,3.18846 -3.18724,3.18759z"/>
  <path class="fil0" d="M3.18689 23.8778c-1.75976,0.000174338 -3.18689,-1.42835 -3.18689,-3.18741 0,-1.76011 1.42782,-3.18794 3.18689,-3.18776 1.76063,-0.000871688 3.18968,1.42835 3.18672,3.18776 0.00191771,1.75907 -1.42608,3.18863 -3.18672,3.18741z"/>
 </g>
</svg>
