<?xml version="1.0" encoding="UTF-8"?>
<!DOCTYPE svg PUBLIC "-//W3C//DTD SVG 1.1//EN" "http://www.w3.org/Graphics/SVG/1.1/DTD/svg11.dtd">
<!-- Creator: CorelDRAW -->
<svg xmlns="http://www.w3.org/2000/svg" xml:space="preserve" width="280px" height="266px" style="shape-rendering:geometricPrecision; text-rendering:geometricPrecision; image-rendering:optimizeQuality; fill-rule:evenodd; clip-rule:evenodd"
viewBox="0 0 66.9134 63.5564"
 xmlns:xlink="http://www.w3.org/1999/xlink">
 <defs>
  <style type="text/css">
   <![CDATA[
    .fil0 {fill:#DEDEDD;opacity:0.5}
   ]]>
  </style>
 </defs>
 <g id="Layer_x0020_1">
  <metadata id="CorelCorpID_0Corel-Layer"/>
  <path class="fil0" d="M36.9464 5.16758c0.000565288,2.85301 -2.31627,5.16786 -5.16503,5.16871 -2.8564,-0.000847932 -5.17153,-2.3157 -5.17153,-5.16871 0,-2.85555 2.31514,-5.16786 5.1704,-5.16758 2.8499,-0.000282644 5.16673,2.31203 5.16616,5.16758z"/>
  <path class="fil0" d="M36.9469 58.3877c0,2.85612 -2.31683,5.16871 -5.16673,5.16871 -2.85527,0 -5.1704,-2.31203 -5.16956,-5.16814 -0.000847932,-2.85216 2.31287,-5.16758 5.16956,-5.16758 2.85018,0 5.16673,2.31542 5.16673,5.16701z"/>
  <path class="fil0" d="M5.16616 26.6104c2.85159,0 5.16871,2.31287 5.17012,5.16786 -0.000847932,2.85442 -2.31853,5.16729 -5.16899,5.16758 -2.85583,0 -5.16729,-2.31316 -5.16729,-5.16729 0,-2.85442 2.31146,-5.16814 5.16616,-5.16814z"/>
  <path class="fil0" d="M58.3877 23.2542c4.71196,0 8.52765,3.81965 8.52567,8.5251 -0.000847932,4.70687 -3.81371,8.52369 -8.52567,8.52369 -4.70348,0 -8.52397,-3.81682 -8.52397,-8.52369 0,-4.71026 3.82021,-8.52623 8.52397,-8.5251z"/>
  <path class="fil0" d="M9.30605 46.9421c2.01779,-2.01921 5.29335,-2.02006 7.30719,-0.000282644 2.02062,2.01638 2.02175,5.28883 0,7.30691 -2.01384,2.01836 -5.2894,2.01723 -7.30719,0.000847932 -2.01695,-2.01893 -2.01695,-5.29138 0,-7.30747z"/>
  <path class="fil0" d="M45.6945 8.06129c2.70575,-2.70688 7.09323,-2.7066 9.80322,-0.00141322 2.70405,2.70575 2.70405,7.09917 0.000847932,9.80124 -2.70886,2.70971 -7.10114,2.70999 -9.80322,-0.00141322 -2.70971,-2.70066 -2.70971,-7.09408 -0.000847932,-9.79841z"/>
  <path class="fil0" d="M46.9401 54.2492c-2.01836,-2.01695 -2.01836,-5.29194 0.000565288,-7.30747 2.01723,-2.01893 5.29053,-2.01893 7.30663,0.000282644 2.01695,2.0161 2.01695,5.28855 0.00197851,7.30606 -2.01921,2.01779 -5.29194,2.01893 -7.30917,0.00113058z"/>
  <path class="fil0" d="M9.30661 16.6163c-2.01751,-2.01779 -2.01751,-5.29024 0,-7.30917 2.01723,-2.01751 5.29279,-2.01751 7.30832,-0.00141322 2.01893,2.02034 2.01893,5.29448 -0.00169586,7.31058 -2.01469,2.01864 -5.2894,2.01921 -7.30663,0z"/>
 </g>
</svg>
