<?xml version="1.0" encoding="UTF-8"?>
<!DOCTYPE svg PUBLIC "-//W3C//DTD SVG 1.1//EN" "http://www.w3.org/Graphics/SVG/1.1/DTD/svg11.dtd">
<!-- Creator: CorelDRAW -->
<svg xmlns="http://www.w3.org/2000/svg" xml:space="preserve" width="273px" height="266px" style="shape-rendering:geometricPrecision; text-rendering:geometricPrecision; image-rendering:optimizeQuality; fill-rule:evenodd; clip-rule:evenodd"
viewBox="0 0 145.274 141.348"
 xmlns:xlink="http://www.w3.org/1999/xlink">
 <defs>
  <style type="text/css">
   <![CDATA[
    .fil0 {fill:#DEDEDD;opacity:0.5}
   ]]>
  </style>
 </defs>
 <g id="Layer_x0020_1">
  <metadata id="CorelCorpID_0Corel-Layer"/>
  <path class="fil0" d="M120.648 36.9538c-4.48368,4.48808 -11.7671,4.48934 -16.2495,0.00880017 -4.48934,-4.49248 -4.48934,-11.7784 -0.00565725,-16.2633 4.49311,-4.48997 11.7702,-4.4862 16.2602,0.00502867 4.48243,4.48243 4.48934,11.7602 -0.00502867,16.2495z"/>
  <path class="fil0" d="M36.9563 120.65c-4.48746,4.48871 -11.7677,4.48243 -16.252,0 -4.4906,-4.48808 -4.49626,-11.7665 -0.00314292,-16.2564 4.48746,-4.48494 11.7677,-4.4862 16.2552,0.00314292 4.48871,4.48557 4.48557,11.7683 0,16.2533z"/>
  <path class="fil0" d="M36.9563 20.6992c4.48243,4.48494 4.48871,11.7652 0,16.2552 -4.48746,4.48871 -11.7702,4.4818 -16.257,-0.000628583 -4.49123,-4.49248 -4.48557,-11.7665 0,-16.2526 4.48934,-4.48871 11.7646,-4.49248 16.257,-0.00188575z"/>
  <path class="fil0" d="M125.929 99.1144c7.40785,7.40723 7.40031,19.4163 0,26.8122 -7.40471,7.40471 -19.4037,7.4066 -26.8141,0 -7.3978,-7.39591 -7.40283,-19.4088 0,-26.8116 7.40345,-7.40534 19.4132,-7.39905 26.8141,-0.000628583z"/>
  <path class="fil0" d="M11.4924 59.1799c6.35058,0 11.4993,5.14873 11.4924,11.4924 0.00440008,6.34932 -5.14118,11.4936 -11.4924,11.4924 -6.34052,0.00125717 -11.4905,-5.14621 -11.4924,-11.4924 0.00188575,-6.34681 5.14684,-11.4924 11.4924,-11.4924z"/>
  <path class="fil0" d="M129.86 55.2606c8.51039,0 15.4072,6.89996 15.4147,15.416 -0.00502867,8.50725 -6.91316,15.4135 -15.4116,15.4129 -8.52359,0.00188575 -15.4305,-6.90436 -15.4166,-15.4173 -0.0138288,-8.50725 6.89304,-15.4191 15.4135,-15.4116z"/>
  <path class="fil0" d="M59.183 129.854c-0.00314292,-6.34743 5.14873,-11.4943 11.4911,-11.4892 6.34681,-0.00502867 11.4943,5.14181 11.4905,11.4892 0.000628583,6.34241 -5.14495,11.4905 -11.4861,11.4943 -6.35183,-0.00314292 -11.4968,-5.15061 -11.4955,-11.4943z"/>
  <path class="fil0" d="M59.1817 11.4911c0,-6.34555 5.14873,-11.4911 11.4924,-11.4911 6.34555,0 11.4962,5.14998 11.4911,11.4905 0.00502867,6.34995 -5.14558,11.4987 -11.4911,11.4905 -6.34743,0.007543 -11.4943,-5.1393 -11.4924,-11.4899z"/>
 </g>
</svg>
