<?xml version="1.0" encoding="UTF-8"?>
<!DOCTYPE svg PUBLIC "-//W3C//DTD SVG 1.1//EN" "http://www.w3.org/Graphics/SVG/1.1/DTD/svg11.dtd">
<!-- Creator: CorelDRAW -->
<svg xmlns="http://www.w3.org/2000/svg" xml:space="preserve" width="266px" height="280px" style="shape-rendering:geometricPrecision; text-rendering:geometricPrecision; image-rendering:optimizeQuality; fill-rule:evenodd; clip-rule:evenodd"
viewBox="0 0 591.762 623.018"
 xmlns:xlink="http://www.w3.org/1999/xlink">
 <defs>
  <style type="text/css">
   <![CDATA[
    .fil0 {fill:#DEDEDD;opacity:0.5}
   ]]>
  </style>
 </defs>
 <g id="Layer_x0020_1">
  <metadata id="CorelCorpID_0Corel-Layer"/>
  <path class="fil0" d="M543.65 343.999c-26.5584,0.0131582 -48.1167,-21.5583 -48.1246,-48.0825 0.00789489,-26.5874 21.5662,-48.1588 48.1246,-48.1588 26.5821,0 48.1167,21.5531 48.1115,48.151 0.00526326,26.5321 -21.5162,48.1036 -48.1115,48.0904z"/>
  <path class="fil0" d="M48.1246 344.012c-26.5874,0.00263163 -48.1246,-21.5715 -48.1246,-48.1115 0,-26.59 21.5215,-48.1431 48.1167,-48.1299 26.5532,-0.0131582 48.1115,21.5399 48.1115,48.1299 0,26.54 -21.5583,48.1115 -48.1036,48.1115z"/>
  <path class="fil0" d="M344.012 48.1088c-0.0131582,26.5453 -21.5504,48.1325 -48.1299,48.1378 -26.5742,0 -48.1194,-21.5925 -48.1194,-48.1378 0,-26.5768 21.5504,-48.1088 48.1194,-48.1088 26.5689,-0.0105265 48.1167,21.5294 48.1299,48.1088z"/>
  <path class="fil0" d="M375.257 543.648c0,43.864 -35.5586,79.3831 -79.3753,79.37 -43.8482,0 -79.3753,-35.4954 -79.3753,-79.37 0,-43.8061 35.5375,-79.3726 79.3753,-79.3726 43.8456,0 79.3831,35.5665 79.3753,79.3726z"/>
  <path class="fil0" d="M154.693 86.657c18.8056,18.7977 18.8135,49.2852 0.0105265,68.025 -18.7793,18.8162 -49.2483,18.8214 -68.0487,0.0131582 -18.7741,-18.7662 -18.7741,-49.2404 0,-68.0382 18.8004,-18.7767 49.2694,-18.7898 68.0382,0z"/>
  <path class="fil0" d="M516.715 425.458c25.1926,25.1926 25.1847,66.0355 0,91.2676 -25.1873,25.1768 -66.0987,25.1768 -91.2571,0.00789489 -25.2294,-25.2163 -25.2294,-66.1039 0,-91.2676 25.1584,-25.2294 66.0618,-25.2373 91.2571,-0.00789489z"/>
  <path class="fil0" d="M86.6543 437.059c18.7951,-18.8056 49.2826,-18.7977 68.0461,0.00789489 18.7977,18.7609 18.7977,49.2457 -0.00789489,68.0198 -18.7688,18.7846 -49.2378,18.7846 -68.025,0.0368428 -18.7872,-18.8162 -18.7925,-49.2957 -0.0131582,-68.0645z"/>
  <path class="fil0" d="M437.059 86.657c18.7872,-18.7767 49.2641,-18.7767 68.0461,0.00526326 18.7767,18.7925 18.7767,49.2668 0,68.0329 -18.782,18.803 -49.2799,18.803 -68.0382,-0.0131582 -18.8083,-18.753 -18.8162,-49.2273 -0.00789489,-68.025z"/>
 </g>
</svg>
