<?xml version="1.0" encoding="UTF-8" standalone="no"?>
<!-- Created with Inkscape (http://www.inkscape.org/) -->
<svg
   xmlns:svg="http://www.w3.org/2000/svg"
   xmlns="http://www.w3.org/2000/svg"
   version="1.0"
   width="266"
   height="280"
   viewBox="0 0 29.1463 30.6861"
   id="svg2"
   xml:space="preserve"
   style="fill-rule:evenodd">
 <defs
   id="defs4">
  <style
   type="text/css"
   id="style6" />
 
  
  
  
  
  
  
  
  
  
 </defs>
 <path
   d="M 2.36966,13.7428 C 3.67775,13.742541 4.73957,14.8041 4.73996,16.11142 C 4.7395711,17.4212 3.67775,18.48289 2.36966,18.48263 C 1.0604,18.48263 -0.00025,17.4212 0,16.11168 C -0.000129617,14.80411 1.0604,13.74254 2.36966,13.7428 L 2.36966,13.7428 z"
   id="path10"
   style="fill:#dededd;fill-opacity:0.5" /><path
   d="M 26.776,13.7425 C 28.08578,13.7425 29.1463,14.80406 29.1463,16.11203 C 29.146689,17.42116 28.08629,18.48259 26.77639,18.48259 C 25.46856,18.48259 24.40673,17.42142 24.40673,16.11203 C 24.40673,14.80407 25.46855,13.7425 26.776,13.7425 z"
   id="path12"
   style="fill:#dededd;fill-opacity:0.5" /><path
   d="M 12.2025,28.3158 C 12.203018,27.00861 13.26393,25.94666 14.57306,25.94511 C 15.88167,25.945888 16.9431,27.00862 16.9431,28.3158 C 16.9431,29.62584 15.88167,30.6861 14.57306,30.6861 C 13.26445,30.6861 12.20302,29.62583 12.2025,28.3158 z"
   id="path14"
   style="fill:#dededd;fill-opacity:0.5" /><path
   d="M 10.6636,3.90937 C 10.6636,1.74918 12.41498,-0.00039 14.5731,0 C 16.73278,0.000259234 18.4826,1.74918 18.4826,3.90937 C 18.482859,6.06671 16.73277,7.81926 14.5731,7.81926 C 12.4142,7.81926 10.6636,6.06723 10.6636,3.90937 L 10.6636,3.90937 z"
   id="path16"
   style="fill:#dededd;fill-opacity:0.5" /><path
   d="M 21.5272,26.4184 C 20.600569,25.492936 20.600569,23.99029 21.5272,23.06703 C 22.451628,22.140269 23.95233,22.14001 24.87831,23.06703 C 25.803256,23.990291 25.802997,25.49294 24.87831,26.4184 C 23.952586,27.342957 22.45162,27.342957 21.5272,26.4184 z"
   id="path18"
   style="fill:#dededd;fill-opacity:0.5" /><path
   d="M 3.69628,9.73099 C 2.45546,8.4903 2.45546,6.47813 3.69628,5.23549 C 4.9371,3.9957 6.95187,3.9957 8.191,5.23549 C 9.43364,6.47748 9.43364,8.49108 8.191,9.73099 C 6.95186,10.97311 4.93684,10.97311 3.69628,9.73099 L 3.69628,9.73099 z"
   id="path20"
   style="fill:#dededd;fill-opacity:0.5" /><path
   d="M 24.8783,9.15925 C 23.952576,10.085103 22.45096,10.084844 21.5268,9.1586019 C 20.600558,8.2349519 20.600558,6.7336019 21.527189,5.8090419 C 22.451617,4.8834479 23.952319,4.8834479 24.877659,5.8076161 C 25.802994,6.7341171 25.802994,8.2349561 24.878307,9.1592461 L 24.8783,9.15925 z"
   id="path22"
   style="fill:#dededd;fill-opacity:0.5" /><path
   d="M 7.61966,26.418 C 6.694844,27.342946 5.19323,27.342946 4.26816,26.418 C 3.343344,25.492665 3.343344,23.99028 4.26816,23.0665 C 5.193236,22.140258 6.69537,22.140647 7.61927,23.067018 C 8.546031,23.991316 8.546031,25.492928 7.6196589,26.417998 L 7.61966,26.418 z"
   id="path24"
   style="fill:#dededd;fill-opacity:0.5" />
</svg>