<?xml version="1.0" encoding="UTF-8"?>
<!DOCTYPE svg PUBLIC "-//W3C//DTD SVG 1.1//EN" "http://www.w3.org/Graphics/SVG/1.1/DTD/svg11.dtd">
<!-- Creator: CorelDRAW -->
<svg xmlns="http://www.w3.org/2000/svg" xml:space="preserve" width="273px" height="266px" style="shape-rendering:geometricPrecision; text-rendering:geometricPrecision; image-rendering:optimizeQuality; fill-rule:evenodd; clip-rule:evenodd"
viewBox="0 0 38.0753 37.0471"
 xmlns:xlink="http://www.w3.org/1999/xlink">
 <defs>
  <style type="text/css">
   <![CDATA[
    .fil0 {fill:#DEDEDD;opacity:0.5}
   ]]>
  </style>
 </defs>
 <g id="Layer_x0020_1">
  <metadata id="CorelCorpID_0Corel-Layer"/>
  <path class="fil0" d="M6.45355 27.3622c1.17532,-1.17647 3.08443,-1.17598 4.25893,-0.00197699 1.17647,1.17697 1.1773,3.08641 0.00148274,4.26206 -1.1768,1.17631 -3.08394,1.17581 -4.26123,-0.00148274 -1.1745,-1.1745 -1.17697,-3.08212 0.000823745,-4.2586z"/>
  <path class="fil0" d="M28.3884 5.42601c1.17713,-1.1773 3.08558,-1.17565 4.26024,-0.000658996 1.1773,1.1768 1.17845,3.08361 0.000823745,4.26041 -1.17499,1.17598 -3.08328,1.17614 -4.26057,-0.000658996 -1.17466,-1.17499 -1.17515,-3.08394 -0.000494247,-4.25909z"/>
  <path class="fil0" d="M28.3892 31.6229c-1.17433,-1.17598 -1.17647,-3.08476 -0.000329498,-4.2614 1.17647,-1.17664 3.08591,-1.17433 4.2609,0.000658996 1.17664,1.17647 1.17581,3.08361 -0.000329498,4.25975 -1.17548,1.17647 -3.08278,1.17697 -4.26024,0.000988494z"/>
  <path class="fil0" d="M5.07015 11.0698c-1.94173,-1.94173 -1.94025,-5.08811 0,-7.0272 1.94091,-1.94124 5.08531,-1.94272 7.02737,-0.000329498 1.9391,1.93926 1.94041,5.08663 -0.000164749,7.0272 -1.94091,1.94107 -5.0886,1.93975 -7.0272,0.000329498z"/>
  <path class="fil0" d="M35.0637 21.5357c-1.66462,0.000329498 -3.01474,-1.3488 -3.01178,-3.01095 -0.00181224,-1.66413 1.34649,-3.01326 3.01161,-3.01293 1.66149,-0.000329498 3.01095,1.3488 3.01178,3.01211 -0.000988494,1.66347 -1.34913,3.0126 -3.01161,3.01178z"/>
  <path class="fil0" d="M4.04014 22.5637c-2.23054,0.000329498 -4.03816,-1.80845 -4.04014,-4.04014 0.000164749,-2.22955 1.81158,-4.04063 4.03932,-4.04014 2.23284,-0.000494247 4.04294,1.80927 4.04014,4.04014 0.00329498,2.23054 -1.8073,4.04146 -4.03932,4.04014z"/>
  <path class="fil0" d="M22.5644 3.0126c0.000164749,1.66446 -1.34962,3.01359 -3.0126,3.01161 -1.66265,0.00164749 -3.01244,-1.34765 -3.01079,-3.01112 -0.000823745,-1.66232 1.34798,-3.01145 3.00964,-3.01309 1.66446,0.00115324 3.01392,1.35045 3.01375,3.0126z"/>
  <path class="fil0" d="M22.5639 34.0353c-0.000329498,1.66265 -1.34946,3.01178 -3.01227,3.01178 -1.66314,-0.000494247 -3.01227,-1.34979 -3.01194,-3.01178 -0.000658996,-1.66347 1.34946,-3.01359 3.0126,-3.01112 1.66281,-0.00247124 3.01211,1.34633 3.01161,3.01112z"/>
 </g>
</svg>
