<?xml version="1.0" encoding="UTF-8"?>
<!DOCTYPE svg PUBLIC "-//W3C//DTD SVG 1.1//EN" "http://www.w3.org/Graphics/SVG/1.1/DTD/svg11.dtd">
<!-- Creator: CorelDRAW -->
<svg xmlns="http://www.w3.org/2000/svg" xml:space="preserve" width="280px" height="266px" style="shape-rendering:geometricPrecision; text-rendering:geometricPrecision; image-rendering:optimizeQuality; fill-rule:evenodd; clip-rule:evenodd"
viewBox="0 0 58.2264 55.305"
 xmlns:xlink="http://www.w3.org/1999/xlink">
 <defs>
  <style type="text/css">
   <![CDATA[
    .fil0 {fill:#DEDEDD;opacity:0.5}
   ]]>
  </style>
 </defs>
 <g id="Layer_x0020_1">
  <metadata id="CorelCorpID_0Corel-Layer"/>
  <path class="fil0" d="M26.077 50.8091c-0.00147569,-2.48261 2.01457,-4.49742 4.49373,-4.49791 2.48433,0.000491898 4.50062,2.01531 4.50062,4.49767 -0.000491898,2.48384 -2.01432,4.49668 -4.49988,4.49619 -2.4799,0.000491898 -4.49595,-2.01088 -4.49447,-4.49595z"/>
  <path class="fil0" d="M26.0755 4.49791c-0.000245949,-2.48531 2.01604,-4.49816 4.49644,-4.49791 2.48507,-0.000245949 4.49914,2.01112 4.49816,4.49668 0.00122974,2.48162 -2.01309,4.49644 -4.49816,4.49668 -2.48039,-0.000245949 -4.49619,-2.01481 -4.49644,-4.49545z"/>
  <path class="fil0" d="M53.7302 32.1509c-2.48089,-0.00172164 -4.49816,-2.01432 -4.49865,-4.49791 -0.000245949,-2.48408 2.01776,-4.49718 4.49865,-4.49718 2.48384,-0.000245949 4.49619,2.01383 4.49619,4.49693 0.000983795,2.48285 -2.01186,4.49693 -4.49619,4.49816z"/>
  <path class="fil0" d="M7.41806 35.0708c-4.09948,0 -7.41929,-3.32302 -7.41806,-7.41806 -0.000245949,-4.098 3.31736,-7.41856 7.41782,-7.41856 4.09406,0.000245949 7.41806,3.32129 7.41806,7.41831 0,4.09775 -3.32424,7.41905 -7.41782,7.41831z"/>
  <path class="fil0" d="M50.1276 14.4571c-1.75681,1.75755 -4.60613,1.75853 -6.35753,0.000983795 -1.75853,-1.75485 -1.75927,-4.60244 -0.00147569,-6.35975 1.75386,-1.75435 4.6022,-1.7546 6.35901,0.000245949 1.75485,1.75706 1.75607,4.60441 0,6.35852z"/>
  <path class="fil0" d="M18.4636 48.2913c-2.35422,2.35496 -6.1716,2.35373 -8.52951,0 -2.35324,-2.35373 -2.35299,-6.17774 -0.000983795,-8.52877 2.35668,-2.35767 6.17799,-2.35791 8.53,0 2.35767,2.35103 2.3584,6.17405 0.000491898,8.52877z"/>
  <path class="fil0" d="M17.38 8.09836c1.75706,1.75681 1.75632,4.60588 -0.00122974,6.35925 -1.75337,1.75706 -4.60244,1.7573 -6.35679,-0.000245949 -1.75558,-1.75411 -1.75583,-4.60195 -0.00368923,-6.35778 1.75853,-1.75583 4.60711,-1.75607 6.36171,-0.00122974z"/>
  <path class="fil0" d="M50.1276 40.8469c1.75485,1.75558 1.75485,4.60392 -0.000491898,6.35925 -1.75632,1.75509 -4.60465,1.75485 -6.35876,0 -1.75681,-1.75509 -1.75681,-4.60564 0.00147569,-6.35827 1.75288,-1.75829 4.60097,-1.75878 6.35778,-0.000983795z"/>
 </g>
</svg>
