<?xml version="1.0" encoding="UTF-8"?>
<!DOCTYPE svg PUBLIC "-//W3C//DTD SVG 1.1//EN" "http://www.w3.org/Graphics/SVG/1.1/DTD/svg11.dtd">
<!-- Creator: CorelDRAW -->
<svg xmlns="http://www.w3.org/2000/svg" xml:space="preserve" width="266px" height="273px" style="shape-rendering:geometricPrecision; text-rendering:geometricPrecision; image-rendering:optimizeQuality; fill-rule:evenodd; clip-rule:evenodd"
viewBox="0 0 97.126 99.822"
 xmlns:xlink="http://www.w3.org/1999/xlink">
 <defs>
  <style type="text/css">
   <![CDATA[
    .fil0 {fill:#DEDEDD;opacity:0.5}
   ]]>
  </style>
 </defs>
 <g id="Layer_x0020_1">
  <metadata id="CorelCorpID_0Corel-Layer"/>
  <path class="fil0" d="M71.7351 82.9024c-3.08434,-3.08089 -3.08262,-8.08642 -0.00518305,-11.1656 3.0865,-3.08434 8.0916,-3.08607 11.1738,-0.00388728 3.08478,3.08521 3.08305,8.08555 -0.00431921,11.1716 -3.07873,3.08003 -8.07994,3.08564 -11.1643,-0.0021596z"/>
  <path class="fil0" d="M14.2253 25.3961c-3.0865,-3.08564 -3.08219,-8.08901 -0.00172768,-11.169 3.08564,-3.08607 8.08426,-3.08953 11.1695,-0.00172768 3.08348,3.08003 3.08391,8.08339 -0.00172768,11.1695 -3.08046,3.08003 -8.08555,3.08132 -11.166,0.00129576z"/>
  <path class="fil0" d="M82.9054 25.3939c-3.08305,3.07873 -8.08728,3.08478 -11.1725,0.000863841 -3.08434,-3.08434 -3.0783,-8.0903 0.0021596,-11.1708 3.08434,-3.08478 8.08426,-3.08262 11.1677,0.000863841 3.08434,3.08219 3.08564,8.08253 0.00259152,11.169z"/>
  <path class="fil0" d="M29.0212 86.5292c-5.09062,5.09062 -13.339,5.08673 -18.4227,0 -5.08889,-5.08889 -5.09278,-13.3317 -0.000863841,-18.4236 5.08414,-5.0837 13.336,-5.08716 18.4236,0.000431921 5.08846,5.08846 5.085,13.3407 0,18.4231z"/>
  <path class="fil0" d="M56.4598 7.89594c0.000863841,4.36413 -3.53613,7.90328 -7.89335,7.89594 -4.36326,0.00431921 -7.89983,-3.53138 -7.89896,-7.89594 -0.000863841,-4.35678 3.5357,-7.89335 7.89637,-7.89594 4.3611,0.00259152 7.89853,3.537 7.89594,7.89594z"/>
  <path class="fil0" d="M59.155 89.23c0,5.84777 -4.74119,10.5868 -10.592,10.592 -5.84518,-0.000863841 -10.5933,-4.7494 -10.592,-10.5898 -0.00129576,-5.85425 4.74335,-10.5998 10.5924,-10.5924 5.84734,-0.00820649 10.5954,4.73817 10.5916,10.5903z"/>
  <path class="fil0" d="M7.8981 40.6653c4.36369,-0.000863841 7.90069,3.53829 7.89551,7.89767 0.00475113,4.35937 -3.53311,7.89767 -7.89464,7.89378 -4.35808,0.00172768 -7.89421,-3.53441 -7.89896,-7.89032 0.00345536,-4.36413 3.54045,-7.90199 7.8981,-7.90112z"/>
  <path class="fil0" d="M89.23 40.6662c4.35937,0.000863841 7.89637,3.53786 7.89594,7.89724 -0.00129576,4.36024 -3.53829,7.89724 -7.89594,7.89637 -4.3611,0.00172768 -7.90069,-3.53743 -7.89378,-7.8981 -0.00647881,-4.35937 3.52922,-7.8968 7.89378,-7.89551z"/>
 </g>
</svg>
